<svg width="776" height="61" viewBox="0 0 776 61" fill="none" xmlns="http://www.w3.org/2000/svg">
<g opacity="0.4">
<rect x="7.9165" width="3.16667" height="19" rx="1.58333" fill="#1C1C1C"/>
<rect x="19" y="7.91663" width="3.16667" height="19" rx="1.58333" transform="rotate(90 19 7.91663)" fill="#1C1C1C"/>
<rect x="28.9165" width="3.16667" height="19" rx="1.58333" fill="#1C1C1C"/>
<rect x="40" y="7.91663" width="3.16667" height="19" rx="1.58333" transform="rotate(90 40 7.91663)" fill="#1C1C1C"/>
<rect x="49.9165" width="3.16667" height="19" rx="1.58333" fill="#1C1C1C"/>
<rect x="61" y="7.91663" width="3.16667" height="19" rx="1.58333" transform="rotate(90 61 7.91663)" fill="#1C1C1C"/>
<rect x="70.9165" width="3.16667" height="19" rx="1.58333" fill="#1C1C1C"/>
<rect x="82" y="7.91663" width="3.16667" height="19" rx="1.58333" transform="rotate(90 82 7.91663)" fill="#1C1C1C"/>
<rect x="91.9165" width="3.16667" height="19" rx="1.58333" fill="#1C1C1C"/>
<rect x="103" y="7.91663" width="3.16667" height="19" rx="1.58333" transform="rotate(90 103 7.91663)" fill="#1C1C1C"/>
<rect x="112.917" width="3.16667" height="19" rx="1.58333" fill="#ACACAC"/>
<rect x="124" y="7.91663" width="3.16667" height="19" rx="1.58333" transform="rotate(90 124 7.91663)" fill="#ACACAC"/>
<rect x="133.917" width="3.16667" height="19" rx="1.58333" fill="#ACACAC"/>
<rect x="145" y="7.91663" width="3.16667" height="19" rx="1.58333" transform="rotate(90 145 7.91663)" fill="#ACACAC"/>
<rect x="154.917" width="3.16667" height="19" rx="1.58333" fill="#ACACAC"/>
<rect x="166" y="7.91663" width="3.16667" height="19" rx="1.58333" transform="rotate(90 166 7.91663)" fill="#ACACAC"/>
<rect x="175.917" width="3.16667" height="19" rx="1.58333" fill="#ACACAC"/>
<rect x="187" y="7.91663" width="3.16667" height="19" rx="1.58333" transform="rotate(90 187 7.91663)" fill="#ACACAC"/>
<rect x="196.917" width="3.16667" height="19" rx="1.58333" fill="#ACACAC"/>
<rect x="208" y="7.91663" width="3.16667" height="19" rx="1.58333" transform="rotate(90 208 7.91663)" fill="#ACACAC"/>
<rect x="217.917" width="3.16667" height="19" rx="1.58333" fill="#8B8B8B"/>
<rect x="229" y="7.91663" width="3.16667" height="19" rx="1.58333" transform="rotate(90 229 7.91663)" fill="#8B8B8B"/>
<rect x="238.917" width="3.16667" height="19" rx="1.58333" fill="#8B8B8B"/>
<rect x="250" y="7.91663" width="3.16667" height="19" rx="1.58333" transform="rotate(90 250 7.91663)" fill="#8B8B8B"/>
<rect x="259.917" width="3.16667" height="19" rx="1.58333" fill="#8B8B8B"/>
<rect x="271" y="7.91663" width="3.16667" height="19" rx="1.58333" transform="rotate(90 271 7.91663)" fill="#8B8B8B"/>
<rect x="280.917" width="3.16667" height="19" rx="1.58333" fill="#8B8B8B"/>
<rect x="292" y="7.91663" width="3.16667" height="19" rx="1.58333" transform="rotate(90 292 7.91663)" fill="#8B8B8B"/>
<rect x="301.917" width="3.16667" height="19" rx="1.58333" fill="#8B8B8B"/>
<rect x="313" y="7.91663" width="3.16667" height="19" rx="1.58333" transform="rotate(90 313 7.91663)" fill="#8B8B8B"/>
<rect x="322.917" width="3.16667" height="19" rx="1.58333" fill="#1C1C1C"/>
<rect x="334" y="7.91663" width="3.16667" height="19" rx="1.58333" transform="rotate(90 334 7.91663)" fill="#1C1C1C"/>
<rect x="343.917" width="3.16667" height="19" rx="1.58333" fill="#1C1C1C"/>
<rect x="355" y="7.91663" width="3.16667" height="19" rx="1.58333" transform="rotate(90 355 7.91663)" fill="#1C1C1C"/>
<rect x="364.917" width="3.16667" height="19" rx="1.58333" fill="#1C1C1C"/>
<rect x="376" y="7.91663" width="3.16667" height="19" rx="1.58333" transform="rotate(90 376 7.91663)" fill="#1C1C1C"/>
<rect x="385.917" width="3.16667" height="19" rx="1.58333" fill="#1C1C1C"/>
<rect x="397" y="7.91663" width="3.16667" height="19" rx="1.58333" transform="rotate(90 397 7.91663)" fill="#1C1C1C"/>
<rect x="406.917" width="3.16667" height="19" rx="1.58333" fill="#1C1C1C"/>
<rect x="418" y="7.91663" width="3.16667" height="19" rx="1.58333" transform="rotate(90 418 7.91663)" fill="#1C1C1C"/>
<rect x="427.917" width="3.16667" height="19" rx="1.58333" fill="#4B4B4B"/>
<rect x="439" y="7.91663" width="3.16667" height="19" rx="1.58333" transform="rotate(90 439 7.91663)" fill="#4B4B4B"/>
<rect x="448.917" width="3.16667" height="19" rx="1.58333" fill="#4B4B4B"/>
<rect x="460" y="7.91663" width="3.16667" height="19" rx="1.58333" transform="rotate(90 460 7.91663)" fill="#4B4B4B"/>
<rect x="469.917" width="3.16667" height="19" rx="1.58333" fill="#4B4B4B"/>
<rect x="481" y="7.91663" width="3.16667" height="19" rx="1.58333" transform="rotate(90 481 7.91663)" fill="#4B4B4B"/>
<rect x="490.917" width="3.16667" height="19" rx="1.58333" fill="#4B4B4B"/>
<rect x="502" y="7.91663" width="3.16667" height="19" rx="1.58333" transform="rotate(90 502 7.91663)" fill="#4B4B4B"/>
<rect x="511.917" width="3.16667" height="19" rx="1.58333" fill="#4B4B4B"/>
<rect x="523" y="7.91663" width="3.16667" height="19" rx="1.58333" transform="rotate(90 523 7.91663)" fill="#4B4B4B"/>
<rect x="532.917" width="3.16667" height="19" rx="1.58333" fill="#EDEDED"/>
<rect x="544" y="7.91663" width="3.16667" height="19" rx="1.58333" transform="rotate(90 544 7.91663)" fill="#EDEDED"/>
<rect x="553.917" width="3.16667" height="19" rx="1.58333" fill="#EDEDED"/>
<rect x="565" y="7.91663" width="3.16667" height="19" rx="1.58333" transform="rotate(90 565 7.91663)" fill="#EDEDED"/>
<rect x="574.917" width="3.16667" height="19" rx="1.58333" fill="#EDEDED"/>
<rect x="586" y="7.91663" width="3.16667" height="19" rx="1.58333" transform="rotate(90 586 7.91663)" fill="#EDEDED"/>
<rect x="595.917" width="3.16667" height="19" rx="1.58333" fill="#EDEDED"/>
<rect x="607" y="7.91663" width="3.16667" height="19" rx="1.58333" transform="rotate(90 607 7.91663)" fill="#EDEDED"/>
<rect x="616.917" width="3.16667" height="19" rx="1.58333" fill="#EDEDED"/>
<rect x="628" y="7.91663" width="3.16667" height="19" rx="1.58333" transform="rotate(90 628 7.91663)" fill="#EDEDED"/>
<rect x="637.917" width="3.16667" height="19" rx="1.58333" fill="#A3A3A3"/>
<rect x="649" y="7.91663" width="3.16667" height="19" rx="1.58333" transform="rotate(90 649 7.91663)" fill="#A3A3A3"/>
<rect x="658.917" width="3.16667" height="19" rx="1.58333" fill="#A3A3A3"/>
<rect x="670" y="7.91663" width="3.16667" height="19" rx="1.58333" transform="rotate(90 670 7.91663)" fill="#A3A3A3"/>
<rect x="679.917" width="3.16667" height="19" rx="1.58333" fill="#A3A3A3"/>
<rect x="691" y="7.91663" width="3.16667" height="19" rx="1.58333" transform="rotate(90 691 7.91663)" fill="#A3A3A3"/>
<rect x="700.917" width="3.16667" height="19" rx="1.58333" fill="#A3A3A3"/>
<rect x="712" y="7.91663" width="3.16667" height="19" rx="1.58333" transform="rotate(90 712 7.91663)" fill="#A3A3A3"/>
<rect x="721.917" width="3.16667" height="19" rx="1.58333" fill="#A3A3A3"/>
<rect x="733" y="7.91663" width="3.16667" height="19" rx="1.58333" transform="rotate(90 733 7.91663)" fill="#A3A3A3"/>
<rect x="742.917" width="3.16667" height="19" rx="1.58333" fill="#A6A6A6"/>
<rect x="754" y="7.91663" width="3.16667" height="19" rx="1.58333" transform="rotate(90 754 7.91663)" fill="#A6A6A6"/>
<rect x="763.917" width="3.16667" height="19" rx="1.58333" fill="#A6A6A6"/>
<rect x="775" y="7.91663" width="3.16667" height="19" rx="1.58333" transform="rotate(90 775 7.91663)" fill="#A6A6A6"/>
<rect x="7.9165" y="21" width="3.16667" height="19" rx="1.58333" fill="#A6A6A6"/>
<rect x="19" y="28.9166" width="3.16667" height="19" rx="1.58333" transform="rotate(90 19 28.9166)" fill="#A6A6A6"/>
<rect x="28.9165" y="21" width="3.16667" height="19" rx="1.58333" fill="#A6A6A6"/>
<rect x="40" y="28.9166" width="3.16667" height="19" rx="1.58333" transform="rotate(90 40 28.9166)" fill="#A6A6A6"/>
<rect x="49.9165" y="21" width="3.16667" height="19" rx="1.58333" fill="#A6A6A6"/>
<rect x="61" y="28.9166" width="3.16667" height="19" rx="1.58333" transform="rotate(90 61 28.9166)" fill="#A6A6A6"/>
<rect x="70.9165" y="21" width="3.16667" height="19" rx="1.58333" fill="#A4A4A4"/>
<rect x="82" y="28.9166" width="3.16667" height="19" rx="1.58333" transform="rotate(90 82 28.9166)" fill="#A4A4A4"/>
<rect x="91.9165" y="21" width="3.16667" height="19" rx="1.58333" fill="#A4A4A4"/>
<rect x="103" y="28.9166" width="3.16667" height="19" rx="1.58333" transform="rotate(90 103 28.9166)" fill="#A4A4A4"/>
<rect x="112.917" y="21" width="3.16667" height="19" rx="1.58333" fill="#A4A4A4"/>
<rect x="124" y="28.9166" width="3.16667" height="19" rx="1.58333" transform="rotate(90 124 28.9166)" fill="#A4A4A4"/>
<rect x="133.917" y="21" width="3.16667" height="19" rx="1.58333" fill="#A4A4A4"/>
<rect x="145" y="28.9166" width="3.16667" height="19" rx="1.58333" transform="rotate(90 145 28.9166)" fill="#A4A4A4"/>
<rect x="154.917" y="21" width="3.16667" height="19" rx="1.58333" fill="#A4A4A4"/>
<rect x="166" y="28.9166" width="3.16667" height="19" rx="1.58333" transform="rotate(90 166 28.9166)" fill="#A4A4A4"/>
<rect x="175.917" y="21" width="3.16667" height="19" rx="1.58333" fill="#2F2F2F"/>
<rect x="187" y="28.9166" width="3.16667" height="19" rx="1.58333" transform="rotate(90 187 28.9166)" fill="#2F2F2F"/>
<rect x="196.917" y="21" width="3.16667" height="19" rx="1.58333" fill="#2F2F2F"/>
<rect x="208" y="28.9166" width="3.16667" height="19" rx="1.58333" transform="rotate(90 208 28.9166)" fill="#2F2F2F"/>
<rect x="217.917" y="21" width="3.16667" height="19" rx="1.58333" fill="#2F2F2F"/>
<rect x="229" y="28.9166" width="3.16667" height="19" rx="1.58333" transform="rotate(90 229 28.9166)" fill="#2F2F2F"/>
<rect x="238.917" y="21" width="3.16667" height="19" rx="1.58333" fill="#2F2F2F"/>
<rect x="250" y="28.9166" width="3.16667" height="19" rx="1.58333" transform="rotate(90 250 28.9166)" fill="#2F2F2F"/>
<rect x="259.917" y="21" width="3.16667" height="19" rx="1.58333" fill="#2F2F2F"/>
<rect x="271" y="28.9166" width="3.16667" height="19" rx="1.58333" transform="rotate(90 271 28.9166)" fill="#2F2F2F"/>
<rect x="280.917" y="21" width="3.16667" height="19" rx="1.58333" fill="#A3A3A3"/>
<rect x="292" y="28.9166" width="3.16667" height="19" rx="1.58333" transform="rotate(90 292 28.9166)" fill="#A3A3A3"/>
<rect x="301.917" y="21" width="3.16667" height="19" rx="1.58333" fill="#A3A3A3"/>
<rect x="313" y="28.9166" width="3.16667" height="19" rx="1.58333" transform="rotate(90 313 28.9166)" fill="#A3A3A3"/>
<rect x="322.917" y="21" width="3.16667" height="19" rx="1.58333" fill="#A3A3A3"/>
<rect x="334" y="28.9166" width="3.16667" height="19" rx="1.58333" transform="rotate(90 334 28.9166)" fill="#A3A3A3"/>
<rect x="343.917" y="21" width="3.16667" height="19" rx="1.58333" fill="#A3A3A3"/>
<rect x="355" y="28.9166" width="3.16667" height="19" rx="1.58333" transform="rotate(90 355 28.9166)" fill="#A3A3A3"/>
<rect x="364.917" y="21" width="3.16667" height="19" rx="1.58333" fill="#A3A3A3"/>
<rect x="376" y="28.9166" width="3.16667" height="19" rx="1.58333" transform="rotate(90 376 28.9166)" fill="#A3A3A3"/>
<rect x="385.917" y="21" width="3.16667" height="19" rx="1.58333" fill="#959595"/>
<rect x="397" y="28.9166" width="3.16667" height="19" rx="1.58333" transform="rotate(90 397 28.9166)" fill="#959595"/>
<rect x="406.917" y="21" width="3.16667" height="19" rx="1.58333" fill="#959595"/>
<rect x="418" y="28.9166" width="3.16667" height="19" rx="1.58333" transform="rotate(90 418 28.9166)" fill="#959595"/>
<rect x="427.917" y="21" width="3.16667" height="19" rx="1.58333" fill="#959595"/>
<rect x="439" y="28.9166" width="3.16667" height="19" rx="1.58333" transform="rotate(90 439 28.9166)" fill="#959595"/>
<rect x="448.917" y="21" width="3.16667" height="19" rx="1.58333" fill="#959595"/>
<rect x="460" y="28.9166" width="3.16667" height="19" rx="1.58333" transform="rotate(90 460 28.9166)" fill="#959595"/>
<rect x="469.917" y="21" width="3.16667" height="19" rx="1.58333" fill="#959595"/>
<rect x="481" y="28.9166" width="3.16667" height="19" rx="1.58333" transform="rotate(90 481 28.9166)" fill="#959595"/>
<rect x="490.917" y="21" width="3.16667" height="19" rx="1.58333" fill="#858585"/>
<rect x="502" y="28.9166" width="3.16667" height="19" rx="1.58333" transform="rotate(90 502 28.9166)" fill="#858585"/>
<rect x="511.917" y="21" width="3.16667" height="19" rx="1.58333" fill="#858585"/>
<rect x="523" y="28.9166" width="3.16667" height="19" rx="1.58333" transform="rotate(90 523 28.9166)" fill="#858585"/>
<rect x="532.917" y="21" width="3.16667" height="19" rx="1.58333" fill="#858585"/>
<rect x="544" y="28.9166" width="3.16667" height="19" rx="1.58333" transform="rotate(90 544 28.9166)" fill="#858585"/>
<rect x="553.917" y="21" width="3.16667" height="19" rx="1.58333" fill="#858585"/>
<rect x="565" y="28.9166" width="3.16667" height="19" rx="1.58333" transform="rotate(90 565 28.9166)" fill="#858585"/>
<rect x="574.917" y="21" width="3.16667" height="19" rx="1.58333" fill="#858585"/>
<rect x="586" y="28.9166" width="3.16667" height="19" rx="1.58333" transform="rotate(90 586 28.9166)" fill="#858585"/>
<rect x="595.917" y="21" width="3.16667" height="19" rx="1.58333" fill="#1C1C1C"/>
<rect x="607" y="28.9166" width="3.16667" height="19" rx="1.58333" transform="rotate(90 607 28.9166)" fill="#1C1C1C"/>
<rect x="616.917" y="21" width="3.16667" height="19" rx="1.58333" fill="#1C1C1C"/>
<rect x="628" y="28.9166" width="3.16667" height="19" rx="1.58333" transform="rotate(90 628 28.9166)" fill="#1C1C1C"/>
<rect x="637.917" y="21" width="3.16667" height="19" rx="1.58333" fill="#1C1C1C"/>
<rect x="649" y="28.9166" width="3.16667" height="19" rx="1.58333" transform="rotate(90 649 28.9166)" fill="#1C1C1C"/>
<rect x="658.917" y="21" width="3.16667" height="19" rx="1.58333" fill="#1C1C1C"/>
<rect x="670" y="28.9166" width="3.16667" height="19" rx="1.58333" transform="rotate(90 670 28.9166)" fill="#1C1C1C"/>
<rect x="679.917" y="21" width="3.16667" height="19" rx="1.58333" fill="#1C1C1C"/>
<rect x="691" y="28.9166" width="3.16667" height="19" rx="1.58333" transform="rotate(90 691 28.9166)" fill="#1C1C1C"/>
<rect x="700.917" y="21" width="3.16667" height="19" rx="1.58333" fill="#676767"/>
<rect x="712" y="28.9166" width="3.16667" height="19" rx="1.58333" transform="rotate(90 712 28.9166)" fill="#676767"/>
<rect x="721.917" y="21" width="3.16667" height="19" rx="1.58333" fill="#676767"/>
<rect x="733" y="28.9166" width="3.16667" height="19" rx="1.58333" transform="rotate(90 733 28.9166)" fill="#676767"/>
<rect x="742.917" y="21" width="3.16667" height="19" rx="1.58333" fill="#676767"/>
<rect x="754" y="28.9166" width="3.16667" height="19" rx="1.58333" transform="rotate(90 754 28.9166)" fill="#676767"/>
<rect x="763.917" y="21" width="3.16667" height="19" rx="1.58333" fill="#676767"/>
<rect x="775" y="28.9166" width="3.16667" height="19" rx="1.58333" transform="rotate(90 775 28.9166)" fill="#676767"/>
<rect x="7.9165" y="42" width="3.16667" height="19" rx="1.58333" fill="#676767"/>
<rect x="19" y="49.9166" width="3.16667" height="19" rx="1.58333" transform="rotate(90 19 49.9166)" fill="#676767"/>
<rect x="28.9165" y="42" width="3.16667" height="19" rx="1.58333" fill="#646464"/>
<rect x="40" y="49.9166" width="3.16667" height="19" rx="1.58333" transform="rotate(90 40 49.9166)" fill="#646464"/>
<rect x="49.9165" y="42" width="3.16667" height="19" rx="1.58333" fill="#646464"/>
<rect x="61" y="49.9166" width="3.16667" height="19" rx="1.58333" transform="rotate(90 61 49.9166)" fill="#646464"/>
<rect x="70.9165" y="42" width="3.16667" height="19" rx="1.58333" fill="#646464"/>
<rect x="82" y="49.9166" width="3.16667" height="19" rx="1.58333" transform="rotate(90 82 49.9166)" fill="#646464"/>
<rect x="91.9165" y="42" width="3.16667" height="19" rx="1.58333" fill="#646464"/>
<rect x="103" y="49.9166" width="3.16667" height="19" rx="1.58333" transform="rotate(90 103 49.9166)" fill="#646464"/>
<rect x="112.917" y="42" width="3.16667" height="19" rx="1.58333" fill="#646464"/>
<rect x="124" y="49.9166" width="3.16667" height="19" rx="1.58333" transform="rotate(90 124 49.9166)" fill="#646464"/>
<rect x="133.917" y="42" width="3.16667" height="19" rx="1.58333" fill="#A4A4A4"/>
<rect x="145" y="49.9166" width="3.16667" height="19" rx="1.58333" transform="rotate(90 145 49.9166)" fill="#A4A4A4"/>
<rect x="154.917" y="42" width="3.16667" height="19" rx="1.58333" fill="#A4A4A4"/>
<rect x="166" y="49.9166" width="3.16667" height="19" rx="1.58333" transform="rotate(90 166 49.9166)" fill="#A4A4A4"/>
<rect x="175.917" y="42" width="3.16667" height="19" rx="1.58333" fill="#A4A4A4"/>
<rect x="187" y="49.9166" width="3.16667" height="19" rx="1.58333" transform="rotate(90 187 49.9166)" fill="#A4A4A4"/>
<rect x="196.917" y="42" width="3.16667" height="19" rx="1.58333" fill="#A4A4A4"/>
<rect x="208" y="49.9166" width="3.16667" height="19" rx="1.58333" transform="rotate(90 208 49.9166)" fill="#A4A4A4"/>
<rect x="217.917" y="42" width="3.16667" height="19" rx="1.58333" fill="#A4A4A4"/>
<rect x="229" y="49.9166" width="3.16667" height="19" rx="1.58333" transform="rotate(90 229 49.9166)" fill="#A4A4A4"/>
<rect x="238.917" y="42" width="3.16667" height="19" rx="1.58333" fill="#5A5A5A"/>
<rect x="250" y="49.9166" width="3.16667" height="19" rx="1.58333" transform="rotate(90 250 49.9166)" fill="#5A5A5A"/>
<rect x="259.917" y="42" width="3.16667" height="19" rx="1.58333" fill="#5A5A5A"/>
<rect x="271" y="49.9166" width="3.16667" height="19" rx="1.58333" transform="rotate(90 271 49.9166)" fill="#5A5A5A"/>
<rect x="280.917" y="42" width="3.16667" height="19" rx="1.58333" fill="#5A5A5A"/>
<rect x="292" y="49.9166" width="3.16667" height="19" rx="1.58333" transform="rotate(90 292 49.9166)" fill="#5A5A5A"/>
<rect x="301.917" y="42" width="3.16667" height="19" rx="1.58333" fill="#5A5A5A"/>
<rect x="313" y="49.9166" width="3.16667" height="19" rx="1.58333" transform="rotate(90 313 49.9166)" fill="#5A5A5A"/>
<rect x="322.917" y="42" width="3.16667" height="19" rx="1.58333" fill="#5A5A5A"/>
<rect x="334" y="49.9166" width="3.16667" height="19" rx="1.58333" transform="rotate(90 334 49.9166)" fill="#5A5A5A"/>
<rect x="343.917" y="42" width="3.16667" height="19" rx="1.58333" fill="#C0C0C0"/>
<rect x="355" y="49.9166" width="3.16667" height="19" rx="1.58333" transform="rotate(90 355 49.9166)" fill="#C0C0C0"/>
<rect x="364.917" y="42" width="3.16667" height="19" rx="1.58333" fill="#C0C0C0"/>
<rect x="376" y="49.9166" width="3.16667" height="19" rx="1.58333" transform="rotate(90 376 49.9166)" fill="#C0C0C0"/>
<rect x="385.917" y="42" width="3.16667" height="19" rx="1.58333" fill="#C0C0C0"/>
<rect x="397" y="49.9166" width="3.16667" height="19" rx="1.58333" transform="rotate(90 397 49.9166)" fill="#C0C0C0"/>
<rect x="406.917" y="42" width="3.16667" height="19" rx="1.58333" fill="#C0C0C0"/>
<rect x="418" y="49.9166" width="3.16667" height="19" rx="1.58333" transform="rotate(90 418 49.9166)" fill="#C0C0C0"/>
<rect x="427.917" y="42" width="3.16667" height="19" rx="1.58333" fill="#C0C0C0"/>
<rect x="439" y="49.9166" width="3.16667" height="19" rx="1.58333" transform="rotate(90 439 49.9166)" fill="#C0C0C0"/>
<rect x="448.917" y="42" width="3.16667" height="19" rx="1.58333" fill="#454545"/>
<rect x="460" y="49.9166" width="3.16667" height="19" rx="1.58333" transform="rotate(90 460 49.9166)" fill="#454545"/>
<rect x="469.917" y="42" width="3.16667" height="19" rx="1.58333" fill="#454545"/>
<rect x="481" y="49.9166" width="3.16667" height="19" rx="1.58333" transform="rotate(90 481 49.9166)" fill="#454545"/>
<rect x="490.917" y="42" width="3.16667" height="19" rx="1.58333" fill="#454545"/>
<rect x="502" y="49.9166" width="3.16667" height="19" rx="1.58333" transform="rotate(90 502 49.9166)" fill="#454545"/>
<rect x="511.917" y="42" width="3.16667" height="19" rx="1.58333" fill="#454545"/>
<rect x="523" y="49.9166" width="3.16667" height="19" rx="1.58333" transform="rotate(90 523 49.9166)" fill="#454545"/>
<rect x="532.917" y="42" width="3.16667" height="19" rx="1.58333" fill="#454545"/>
<rect x="544" y="49.9166" width="3.16667" height="19" rx="1.58333" transform="rotate(90 544 49.9166)" fill="#454545"/>
<rect x="553.917" y="42" width="3.16667" height="19" rx="1.58333" fill="#A5A5A5"/>
<rect x="565" y="49.9166" width="3.16667" height="19" rx="1.58333" transform="rotate(90 565 49.9166)" fill="#A5A5A5"/>
<rect x="574.917" y="42" width="3.16667" height="19" rx="1.58333" fill="#A5A5A5"/>
<rect x="586" y="49.9166" width="3.16667" height="19" rx="1.58333" transform="rotate(90 586 49.9166)" fill="#A5A5A5"/>
<rect x="595.917" y="42" width="3.16667" height="19" rx="1.58333" fill="#A5A5A5"/>
<rect x="607" y="49.9166" width="3.16667" height="19" rx="1.58333" transform="rotate(90 607 49.9166)" fill="#A5A5A5"/>
<rect x="616.917" y="42" width="3.16667" height="19" rx="1.58333" fill="#A5A5A5"/>
<rect x="628" y="49.9166" width="3.16667" height="19" rx="1.58333" transform="rotate(90 628 49.9166)" fill="#A5A5A5"/>
<rect x="637.917" y="42" width="3.16667" height="19" rx="1.58333" fill="#A5A5A5"/>
<rect x="649" y="49.9166" width="3.16667" height="19" rx="1.58333" transform="rotate(90 649 49.9166)" fill="#A5A5A5"/>
<rect x="658.917" y="42" width="3.16667" height="19" rx="1.58333" fill="#AFAFAF"/>
<rect x="670" y="49.9166" width="3.16667" height="19" rx="1.58333" transform="rotate(90 670 49.9166)" fill="#AFAFAF"/>
<rect x="679.917" y="42" width="3.16667" height="19" rx="1.58333" fill="#AFAFAF"/>
<rect x="691" y="49.9166" width="3.16667" height="19" rx="1.58333" transform="rotate(90 691 49.9166)" fill="#AFAFAF"/>
<rect x="700.917" y="42" width="3.16667" height="19" rx="1.58333" fill="#AFAFAF"/>
<rect x="712" y="49.9166" width="3.16667" height="19" rx="1.58333" transform="rotate(90 712 49.9166)" fill="#AFAFAF"/>
<rect x="721.917" y="42" width="3.16667" height="19" rx="1.58333" fill="#AFAFAF"/>
<rect x="733" y="49.9166" width="3.16667" height="19" rx="1.58333" transform="rotate(90 733 49.9166)" fill="#AFAFAF"/>
<rect x="742.917" y="42" width="3.16667" height="19" rx="1.58333" fill="#AFAFAF"/>
<rect x="754" y="49.9166" width="3.16667" height="19" rx="1.58333" transform="rotate(90 754 49.9166)" fill="#AFAFAF"/>
<rect x="763.917" y="42" width="3.16667" height="19" rx="1.58333" fill="#191919"/>
<rect x="775" y="49.9166" width="3.16667" height="19" rx="1.58333" transform="rotate(90 775 49.9166)" fill="#191919"/>
</g>
</svg>
