<svg width="88" height="46" viewBox="0 0 88 46" fill="none" xmlns="http://www.w3.org/2000/svg">
<path d="M64.186 0.0720561C65.1585 -0.0658793 66.3076 0.0164398 67.2801 0.133325C71.1869 0.603191 74.0402 2.59777 76.4084 5.63833C80.1696 10.4675 85.8187 23.8387 86.965 29.8442C87.3113 31.589 87.3767 33.3779 87.1588 35.1433C86.0683 43.6068 77.635 46.8385 70.0876 45.818C68.5504 45.6101 67.339 45.2851 65.8884 44.7224C60.6474 42.6897 57.7959 37.7089 55.1822 33.0664C54.6558 32.1313 54.0278 31.2365 53.5836 30.2618C53.3182 29.68 53.4361 29.0317 53.7675 28.5058C55.6415 25.8283 57.5509 23.1722 59.3442 20.4391C59.4279 20.3114 59.5355 20.2019 59.6639 20.1191C59.902 19.9671 60.1937 19.9238 60.4656 20.0002C61.1521 20.1989 61.7087 21.7633 62.0276 22.4137L63.9367 26.2263C65.7183 29.723 69.6018 37.8145 74.6509 35.4312C77.6413 34.0196 74.872 27.6052 74.015 25.3845C72.5076 21.4786 70.8112 17.2239 68.7426 13.5919C68.1091 12.4347 67.2444 11.1132 65.8957 10.7423C64.9859 10.4872 64.0087 10.7002 63.2876 11.3107C62.6711 11.825 61.4996 13.6548 60.9877 14.4178C60.2693 15.4923 59.5436 16.562 58.8106 17.6267L46.897 35.0461C45.4716 37.1803 44.0278 39.3022 42.5656 41.4114C41.8355 42.4716 40.8963 44.2056 39.7999 44.8868C39.0329 45.3634 37.5516 45.2593 36.6298 45.2559L33.2897 45.2443C31.4693 45.2394 29.6443 45.278 27.8251 45.2475C25.6663 45.2114 25.4026 43.3075 24.9648 41.6922L24.0118 38.1996C23.4036 35.9852 22.7792 33.7539 22.1471 31.5443C22.0668 31.2637 21.9953 30.7029 22.1189 30.4472C22.4976 29.6644 22.9732 28.9148 23.4107 28.1591L25.8368 23.9702L27.2253 21.5688C27.4315 21.2103 27.8104 20.4969 28.0635 20.1942C28.8037 19.3092 30.2852 19.6819 30.6784 20.7546C30.9191 21.4113 31.1508 22.2807 31.3739 23.0255L33.1059 28.6752C33.3776 29.5601 33.7696 31.2858 34.2773 32.0326C34.6527 32.585 36.0993 32.3466 36.5295 31.7943C36.9741 31.2236 37.4257 30.545 37.8648 29.9081L40.5857 25.9491L50.5996 11.1688C51.3266 10.1135 52.047 9.05359 52.7605 7.98899C53.5733 6.76818 54.0648 5.94279 55.0131 4.81249C57.4586 1.89746 60.3936 0.401439 64.186 0.0720561Z" fill="#171717"/>
<path d="M30.3492 0.0737478C32.8395 -0.0990869 35.3709 0.568654 37.534 1.7713C41.0331 3.61653 42.6078 6.919 44.2965 10.2772C45.0235 11.7231 46.5826 13.5144 45.5197 15.0686C43.7366 17.6761 42.0477 20.3351 40.2369 22.9221C39.7072 23.6786 38.5347 23.6868 37.8932 23.0403C37.3934 22.4769 37.0349 21.4233 36.7016 20.7125C35.7169 18.6445 34.7551 16.5655 33.8164 14.4762C33.3529 13.4487 32.896 12.3216 32.3755 11.3219C32.2623 11.1044 31.9963 10.8858 31.7829 10.7593C31.3317 10.4931 30.7898 10.4275 30.2881 10.5786C29.2935 10.8672 28.7673 12.1828 28.2737 13.053C27.3812 14.6609 26.4996 16.2749 25.629 17.8947C22.7865 23.1036 19.9173 28.2979 17.0214 33.4773C15.6102 36.0762 14.1765 38.663 12.7203 41.237C12.19 42.1825 11.6529 43.3151 11.0487 44.1817C10.6417 44.7654 9.98557 45.1705 9.26554 45.1979C8.13912 45.2407 6.9244 45.2152 5.78269 45.2156C4.4933 45.2161 3.13666 45.253 1.85314 45.1885C1.4195 45.1474 1.04027 44.9604 0.708113 44.7032C0.123466 44.2509 -0.218325 43.1517 0.157479 42.4745C1.03672 40.8902 1.93546 39.3046 2.80373 37.7063L10.4503 23.7429L17.1067 11.4978L18.8838 8.20795C19.6372 6.79813 20.1374 5.61521 21.2335 4.40348C23.693 1.68432 26.7157 0.277161 30.3492 0.0737478Z" fill="#171717"/>
</svg>
