<svg width="255" height="247" viewBox="0 0 255 247" fill="none" xmlns="http://www.w3.org/2000/svg">
<mask id="path-1-outside-1_1_4" maskUnits="userSpaceOnUse" x="-7.63366" y="-11.4603" width="265.276" height="270.004" fill="black">
<rect fill="white" x="-7.63366" y="-11.4603" width="265.276" height="270.004"/>
<path d="M235.507 125.027L235.487 124.982C235.297 124.563 234.804 124.377 234.385 124.567L223.57 129.466C223.152 129.656 222.966 130.149 223.156 130.567L223.176 130.613C223.366 131.031 223.859 131.217 224.278 131.027L235.093 126.128C235.511 125.939 235.697 125.446 235.507 125.027Z"/>
<path d="M244.215 147.664L244.2 147.616C244.059 147.179 243.591 146.938 243.153 147.079L231.85 150.713C231.412 150.853 231.172 151.322 231.312 151.759L231.328 151.807C231.468 152.244 231.937 152.485 232.374 152.344L238.026 150.528L243.678 148.711C244.115 148.57 244.356 148.101 244.215 147.664Z"/>
<path d="M250.364 171.159L250.354 171.11C250.264 170.659 249.826 170.367 249.375 170.456L237.731 172.779C237.281 172.869 236.988 173.307 237.078 173.758L237.088 173.807C237.178 174.257 237.616 174.55 238.067 174.46L249.71 172.137C250.161 172.047 250.454 171.609 250.364 171.159Z"/>
<path d="M253.722 195.18L253.718 195.131C253.68 194.673 253.278 194.332 252.82 194.37L240.987 195.349C240.53 195.387 240.189 195.789 240.227 196.247L240.231 196.297C240.269 196.755 240.671 197.095 241.129 197.057L252.961 196.078C253.419 196.04 253.76 195.638 253.722 195.18Z"/>
<path d="M254.387 219.47L254.389 219.42C254.403 218.961 254.043 218.577 253.583 218.562L241.716 218.187C241.257 218.173 240.873 218.533 240.858 218.993L240.857 219.043C240.842 219.502 241.203 219.886 241.662 219.9L253.529 220.275C253.988 220.29 254.372 219.929 254.387 219.47Z"/>
<path d="M-5.69405 5.64124L-5.74272 5.65239C-6.19063 5.75506 -6.47049 6.20139 -6.36782 6.64929L-3.71507 18.2222C-3.6124 18.6701 -3.16608 18.95 -2.71817 18.8473L-2.6695 18.8362C-2.2216 18.7335 -1.94173 18.2872 -2.0444 17.8393L-4.69716 6.26634C-4.79983 5.81844 -5.24615 5.53857 -5.69405 5.64124Z"/>
<path d="M18.2317 1.55047L18.182 1.55601C17.7254 1.60699 17.3965 2.01854 17.4475 2.47522L18.7648 14.275C18.8158 14.7317 19.2274 15.0606 19.6841 15.0096L19.7337 15.004C20.1903 14.953 20.5192 14.5415 20.4682 14.0848L19.1509 2.28504C19.0999 1.82836 18.6883 1.49948 18.2317 1.55047Z"/>
<path d="M42.4636 0.250225L42.4137 0.250069C41.9542 0.248628 41.5805 0.619971 41.5791 1.07949L41.5418 12.9525C41.5404 13.412 41.9117 13.7857 42.3712 13.7872L42.4212 13.7873C42.8807 13.7887 43.2544 13.4174 43.2558 12.9579L43.293 1.08486C43.2945 0.625346 42.9231 0.251666 42.4636 0.250225Z"/>
<path d="M66.6976 1.67006L66.648 1.66422C66.1916 1.61045 65.7781 1.93682 65.7243 2.39318L64.335 14.1847C64.2813 14.6411 64.6076 15.0546 65.064 15.1084L65.1136 15.1142C65.5699 15.168 65.9835 14.8416 66.0372 14.3853L67.4265 2.59374C67.4803 2.13738 67.1539 1.72383 66.6976 1.67006Z"/>
<path d="M90.5989 5.90045L90.5503 5.88899C90.103 5.78352 89.655 6.06058 89.5495 6.50783L86.8242 18.0639C86.7187 18.5112 86.9958 18.9592 87.443 19.0647L87.4916 19.0762C87.9389 19.1816 88.3869 18.9046 88.4924 18.4573L91.2177 6.90125C91.3232 6.454 91.0461 6.00593 90.5989 5.90045Z"/>
<path d="M113.869 12.775L113.823 12.7581C113.39 12.6023 112.913 12.8265 112.758 13.2589L108.734 24.4294C108.578 24.8617 108.803 25.3384 109.235 25.4941L109.282 25.511C109.714 25.6668 110.191 25.4425 110.347 25.0102L114.37 13.8397C114.526 13.4074 114.302 12.9307 113.869 12.775Z"/>
<path d="M136.204 22.3042L136.159 22.282C135.747 22.078 135.248 22.2463 135.044 22.6581L129.772 33.2967C129.568 33.7084 129.737 34.2076 130.148 34.4116L130.193 34.4338C130.605 34.6378 131.104 34.4694 131.308 34.0577L136.58 23.4191C136.784 23.0074 136.615 22.5082 136.204 22.3042Z"/>
<path d="M157.285 34.3139L157.243 34.2868C156.857 34.0371 156.342 34.1475 156.092 34.5332L149.642 44.501C149.392 44.8868 149.502 45.4019 149.888 45.6516L149.93 45.6787C150.316 45.9284 150.831 45.8181 151.081 45.4323L157.531 35.4645C157.781 35.0787 157.671 34.5636 157.285 34.3139Z"/>
<path d="M176.898 48.6121L176.859 48.5804C176.504 48.2884 175.98 48.3394 175.688 48.6942L168.144 57.8624C167.852 58.2172 167.903 58.7416 168.258 59.0335L168.296 59.0653C168.651 59.3572 169.175 59.3063 169.467 58.9515L177.011 49.7833C177.303 49.4284 177.252 48.9041 176.898 48.6121Z"/>
<path d="M194.713 65.0903L194.678 65.0544C194.359 64.7239 193.832 64.7147 193.502 65.0339L184.961 73.2817C184.631 73.6009 184.621 74.1276 184.941 74.4582L184.975 74.4941C185.294 74.8246 185.821 74.8338 186.152 74.5146L194.692 66.2668C195.023 65.9476 195.032 65.4209 194.713 65.0903Z"/>
<path d="M210.587 83.455L210.556 83.4154C210.277 83.0506 209.755 82.9815 209.39 83.261L199.965 90.4823C199.601 90.7618 199.531 91.2841 199.811 91.6488L199.841 91.6884C200.121 92.0532 200.643 92.1223 201.008 91.8428L210.432 84.6215C210.797 84.342 210.866 83.8197 210.587 83.455Z"/>
<path d="M-5.69405 5.64124L-5.74272 5.65239C-6.19063 5.75506 -6.47049 6.20139 -6.36782 6.64929L-3.71507 18.2222C-3.6124 18.6701 -3.16608 18.95 -2.71817 18.8473L-2.6695 18.8362C-2.2216 18.7335 -1.94173 18.2872 -2.0444 17.8393L-4.69716 6.26634C-4.79983 5.81844 -5.24615 5.53857 -5.69405 5.64124Z"/>
<path d="M18.2317 1.55047L18.182 1.55601C17.7254 1.60699 17.3965 2.01854 17.4475 2.47522L18.7648 14.275C18.8158 14.7317 19.2274 15.0606 19.6841 15.0096L19.7337 15.004C20.1903 14.953 20.5192 14.5415 20.4682 14.0848L19.1509 2.28504C19.0999 1.82836 18.6883 1.49948 18.2317 1.55047Z"/>
<path d="M42.4636 0.250225L42.4137 0.250069C41.9542 0.248628 41.5805 0.619971 41.5791 1.07949L41.5418 12.9525C41.5404 13.412 41.9117 13.7857 42.3712 13.7872L42.4212 13.7873C42.8807 13.7887 43.2544 13.4174 43.2558 12.9579L43.293 1.08486C43.2945 0.625346 42.9231 0.251666 42.4636 0.250225Z"/>
<path d="M66.6976 1.67006L66.648 1.66422C66.1916 1.61045 65.7781 1.93682 65.7243 2.39318L64.335 14.1847C64.2813 14.6411 64.6076 15.0546 65.064 15.1084L65.1136 15.1142C65.5699 15.168 65.9835 14.8416 66.0372 14.3853L67.4265 2.59374C67.4803 2.13738 67.1539 1.72383 66.6976 1.67006Z"/>
<path d="M90.5989 5.90045L90.5503 5.88899C90.103 5.78352 89.655 6.06058 89.5495 6.50783L86.8242 18.0639C86.7187 18.5112 86.9958 18.9592 87.443 19.0647L87.4916 19.0762C87.9389 19.1816 88.3869 18.9046 88.4924 18.4573L91.2177 6.90125C91.3232 6.454 91.0461 6.00593 90.5989 5.90045Z"/>
<path d="M113.869 12.775L113.823 12.7581C113.39 12.6023 112.913 12.8265 112.758 13.2589L108.734 24.4294C108.578 24.8617 108.803 25.3384 109.235 25.4941L109.282 25.511C109.714 25.6668 110.191 25.4425 110.347 25.0102L114.37 13.8397C114.526 13.4074 114.302 12.9307 113.869 12.775Z"/>
<path d="M136.204 22.3042L136.159 22.282C135.747 22.078 135.248 22.2463 135.044 22.6581L129.772 33.2967C129.568 33.7084 129.737 34.2076 130.148 34.4116L130.193 34.4338C130.605 34.6378 131.104 34.4694 131.308 34.0577L136.58 23.4191C136.784 23.0074 136.615 22.5082 136.204 22.3042Z"/>
<path d="M157.285 34.3139L157.243 34.2868C156.857 34.0371 156.342 34.1475 156.092 34.5332L149.642 44.501C149.392 44.8868 149.502 45.4019 149.888 45.6516L149.93 45.6787C150.316 45.9284 150.831 45.8181 151.081 45.4323L157.531 35.4645C157.781 35.0787 157.671 34.5636 157.285 34.3139Z"/>
<path d="M176.898 48.6121L176.859 48.5804C176.504 48.2884 175.98 48.3394 175.688 48.6942L168.144 57.8624C167.852 58.2172 167.903 58.7416 168.258 59.0335L168.296 59.0653C168.651 59.3572 169.175 59.3063 169.467 58.9515L177.011 49.7833C177.303 49.4284 177.252 48.9041 176.898 48.6121Z"/>
<path d="M194.713 65.0903L194.678 65.0544C194.359 64.7239 193.832 64.7147 193.502 65.0339L184.961 73.2817C184.631 73.6009 184.621 74.1276 184.941 74.4582L184.975 74.4941C185.294 74.8246 185.821 74.8338 186.152 74.5146L194.692 66.2668C195.023 65.9476 195.032 65.4209 194.713 65.0903Z"/>
<path d="M210.587 83.455L210.556 83.4154C210.277 83.0506 209.755 82.9815 209.39 83.261L199.965 90.4823C199.601 90.7618 199.531 91.2841 199.811 91.6488L199.841 91.6884C200.121 92.0532 200.643 92.1223 201.008 91.8428L210.432 84.6215C210.797 84.342 210.866 83.8197 210.587 83.455Z"/>
<path d="M224.179 103.49L224.205 103.533C224.441 103.927 224.313 104.438 223.918 104.674L213.731 110.774C213.337 111.01 212.826 110.881 212.59 110.487L212.565 110.444C212.329 110.05 212.457 109.539 212.851 109.303L223.038 103.204C223.432 102.968 223.943 103.096 224.179 103.49Z"/>
<path d="M252.219 243.574L252.212 243.623C252.145 244.078 251.722 244.392 251.268 244.325L239.521 242.599C239.066 242.532 238.752 242.11 238.819 241.655L238.826 241.606C238.893 241.151 239.315 240.836 239.77 240.903L251.517 242.629C251.972 242.696 252.286 243.119 252.219 243.574Z"/>
</mask>
<path d="M235.507 125.027L235.487 124.982C235.297 124.563 234.804 124.377 234.385 124.567L223.57 129.466C223.152 129.656 222.966 130.149 223.156 130.567L223.176 130.613C223.366 131.031 223.859 131.217 224.278 131.027L235.093 126.128C235.511 125.939 235.697 125.446 235.507 125.027Z" fill="#E3E3E3"/>
<path d="M244.215 147.664L244.2 147.616C244.059 147.179 243.591 146.938 243.153 147.079L231.85 150.713C231.412 150.853 231.172 151.322 231.312 151.759L231.328 151.807C231.468 152.244 231.937 152.485 232.374 152.344L238.026 150.528L243.678 148.711C244.115 148.57 244.356 148.101 244.215 147.664Z" fill="#E3E3E3"/>
<path d="M250.364 171.159L250.354 171.11C250.264 170.659 249.826 170.367 249.375 170.456L237.731 172.779C237.281 172.869 236.988 173.307 237.078 173.758L237.088 173.807C237.178 174.257 237.616 174.55 238.067 174.46L249.71 172.137C250.161 172.047 250.454 171.609 250.364 171.159Z" fill="#E3E3E3"/>
<path d="M253.722 195.18L253.718 195.131C253.68 194.673 253.278 194.332 252.82 194.37L240.987 195.349C240.53 195.387 240.189 195.789 240.227 196.247L240.231 196.297C240.269 196.755 240.671 197.095 241.129 197.057L252.961 196.078C253.419 196.04 253.76 195.638 253.722 195.18Z" fill="#E3E3E3"/>
<path d="M254.387 219.47L254.389 219.42C254.403 218.961 254.043 218.577 253.583 218.562L241.716 218.187C241.257 218.173 240.873 218.533 240.858 218.993L240.857 219.043C240.842 219.502 241.203 219.886 241.662 219.9L253.529 220.275C253.988 220.29 254.372 219.929 254.387 219.47Z" fill="#E3E3E3"/>
<path d="M-5.69405 5.64124L-5.74272 5.65239C-6.19063 5.75506 -6.47049 6.20139 -6.36782 6.64929L-3.71507 18.2222C-3.6124 18.6701 -3.16608 18.95 -2.71817 18.8473L-2.6695 18.8362C-2.2216 18.7335 -1.94173 18.2872 -2.0444 17.8393L-4.69716 6.26634C-4.79983 5.81844 -5.24615 5.53857 -5.69405 5.64124Z" fill="#E3E3E3"/>
<path d="M18.2317 1.55047L18.182 1.55601C17.7254 1.60699 17.3965 2.01854 17.4475 2.47522L18.7648 14.275C18.8158 14.7317 19.2274 15.0606 19.6841 15.0096L19.7337 15.004C20.1903 14.953 20.5192 14.5415 20.4682 14.0848L19.1509 2.28504C19.0999 1.82836 18.6883 1.49948 18.2317 1.55047Z" fill="#E3E3E3"/>
<path d="M42.4636 0.250225L42.4137 0.250069C41.9542 0.248628 41.5805 0.619971 41.5791 1.07949L41.5418 12.9525C41.5404 13.412 41.9117 13.7857 42.3712 13.7872L42.4212 13.7873C42.8807 13.7887 43.2544 13.4174 43.2558 12.9579L43.293 1.08486C43.2945 0.625346 42.9231 0.251666 42.4636 0.250225Z" fill="#E3E3E3"/>
<path d="M66.6976 1.67006L66.648 1.66422C66.1916 1.61045 65.7781 1.93682 65.7243 2.39318L64.335 14.1847C64.2813 14.6411 64.6076 15.0546 65.064 15.1084L65.1136 15.1142C65.5699 15.168 65.9835 14.8416 66.0372 14.3853L67.4265 2.59374C67.4803 2.13738 67.1539 1.72383 66.6976 1.67006Z" fill="#E3E3E3"/>
<path d="M90.5989 5.90045L90.5503 5.88899C90.103 5.78352 89.655 6.06058 89.5495 6.50783L86.8242 18.0639C86.7187 18.5112 86.9958 18.9592 87.443 19.0647L87.4916 19.0762C87.9389 19.1816 88.3869 18.9046 88.4924 18.4573L91.2177 6.90125C91.3232 6.454 91.0461 6.00593 90.5989 5.90045Z" fill="#E3E3E3"/>
<path d="M113.869 12.775L113.823 12.7581C113.39 12.6023 112.913 12.8265 112.758 13.2589L108.734 24.4294C108.578 24.8617 108.803 25.3384 109.235 25.4941L109.282 25.511C109.714 25.6668 110.191 25.4425 110.347 25.0102L114.37 13.8397C114.526 13.4074 114.302 12.9307 113.869 12.775Z" fill="#E3E3E3"/>
<path d="M136.204 22.3042L136.159 22.282C135.747 22.078 135.248 22.2463 135.044 22.6581L129.772 33.2967C129.568 33.7084 129.737 34.2076 130.148 34.4116L130.193 34.4338C130.605 34.6378 131.104 34.4694 131.308 34.0577L136.58 23.4191C136.784 23.0074 136.615 22.5082 136.204 22.3042Z" fill="#E3E3E3"/>
<path d="M157.285 34.3139L157.243 34.2868C156.857 34.0371 156.342 34.1475 156.092 34.5332L149.642 44.501C149.392 44.8868 149.502 45.4019 149.888 45.6516L149.93 45.6787C150.316 45.9284 150.831 45.8181 151.081 45.4323L157.531 35.4645C157.781 35.0787 157.671 34.5636 157.285 34.3139Z" fill="#E3E3E3"/>
<path d="M176.898 48.6121L176.859 48.5804C176.504 48.2884 175.98 48.3394 175.688 48.6942L168.144 57.8624C167.852 58.2172 167.903 58.7416 168.258 59.0335L168.296 59.0653C168.651 59.3572 169.175 59.3063 169.467 58.9515L177.011 49.7833C177.303 49.4284 177.252 48.9041 176.898 48.6121Z" fill="#E3E3E3"/>
<path d="M194.713 65.0903L194.678 65.0544C194.359 64.7239 193.832 64.7147 193.502 65.0339L184.961 73.2817C184.631 73.6009 184.621 74.1276 184.941 74.4582L184.975 74.4941C185.294 74.8246 185.821 74.8338 186.152 74.5146L194.692 66.2668C195.023 65.9476 195.032 65.4209 194.713 65.0903Z" fill="#E3E3E3"/>
<path d="M210.587 83.455L210.556 83.4154C210.277 83.0506 209.755 82.9815 209.39 83.261L199.965 90.4823C199.601 90.7618 199.531 91.2841 199.811 91.6488L199.841 91.6884C200.121 92.0532 200.643 92.1223 201.008 91.8428L210.432 84.6215C210.797 84.342 210.866 83.8197 210.587 83.455Z" fill="#E3E3E3"/>
<path d="M-5.69405 5.64124L-5.74272 5.65239C-6.19063 5.75506 -6.47049 6.20139 -6.36782 6.64929L-3.71507 18.2222C-3.6124 18.6701 -3.16608 18.95 -2.71817 18.8473L-2.6695 18.8362C-2.2216 18.7335 -1.94173 18.2872 -2.0444 17.8393L-4.69716 6.26634C-4.79983 5.81844 -5.24615 5.53857 -5.69405 5.64124Z" fill="#171717"/>
<path d="M18.2317 1.55047L18.182 1.55601C17.7254 1.60699 17.3965 2.01854 17.4475 2.47522L18.7648 14.275C18.8158 14.7317 19.2274 15.0606 19.6841 15.0096L19.7337 15.004C20.1903 14.953 20.5192 14.5415 20.4682 14.0848L19.1509 2.28504C19.0999 1.82836 18.6883 1.49948 18.2317 1.55047Z" fill="#171717"/>
<path d="M42.4636 0.250225L42.4137 0.250069C41.9542 0.248628 41.5805 0.619971 41.5791 1.07949L41.5418 12.9525C41.5404 13.412 41.9117 13.7857 42.3712 13.7872L42.4212 13.7873C42.8807 13.7887 43.2544 13.4174 43.2558 12.9579L43.293 1.08486C43.2945 0.625346 42.9231 0.251666 42.4636 0.250225Z" fill="#171717"/>
<path d="M66.6976 1.67006L66.648 1.66422C66.1916 1.61045 65.7781 1.93682 65.7243 2.39318L64.335 14.1847C64.2813 14.6411 64.6076 15.0546 65.064 15.1084L65.1136 15.1142C65.5699 15.168 65.9835 14.8416 66.0372 14.3853L67.4265 2.59374C67.4803 2.13738 67.1539 1.72383 66.6976 1.67006Z" fill="#171717"/>
<path d="M90.5989 5.90045L90.5503 5.88899C90.103 5.78352 89.655 6.06058 89.5495 6.50783L86.8242 18.0639C86.7187 18.5112 86.9958 18.9592 87.443 19.0647L87.4916 19.0762C87.9389 19.1816 88.3869 18.9046 88.4924 18.4573L91.2177 6.90125C91.3232 6.454 91.0461 6.00593 90.5989 5.90045Z" fill="#171717"/>
<path d="M113.869 12.775L113.823 12.7581C113.39 12.6023 112.913 12.8265 112.758 13.2589L108.734 24.4294C108.578 24.8617 108.803 25.3384 109.235 25.4941L109.282 25.511C109.714 25.6668 110.191 25.4425 110.347 25.0102L114.37 13.8397C114.526 13.4074 114.302 12.9307 113.869 12.775Z" fill="#171717"/>
<path d="M136.204 22.3042L136.159 22.282C135.747 22.078 135.248 22.2463 135.044 22.6581L129.772 33.2967C129.568 33.7084 129.737 34.2076 130.148 34.4116L130.193 34.4338C130.605 34.6378 131.104 34.4694 131.308 34.0577L136.58 23.4191C136.784 23.0074 136.615 22.5082 136.204 22.3042Z" fill="#171717"/>
<path d="M157.285 34.3139L157.243 34.2868C156.857 34.0371 156.342 34.1475 156.092 34.5332L149.642 44.501C149.392 44.8868 149.502 45.4019 149.888 45.6516L149.93 45.6787C150.316 45.9284 150.831 45.8181 151.081 45.4323L157.531 35.4645C157.781 35.0787 157.671 34.5636 157.285 34.3139Z" fill="#171717"/>
<path d="M176.898 48.6121L176.859 48.5804C176.504 48.2884 175.98 48.3394 175.688 48.6942L168.144 57.8624C167.852 58.2172 167.903 58.7416 168.258 59.0335L168.296 59.0653C168.651 59.3572 169.175 59.3063 169.467 58.9515L177.011 49.7833C177.303 49.4284 177.252 48.9041 176.898 48.6121Z" fill="#171717"/>
<path d="M194.713 65.0903L194.678 65.0544C194.359 64.7239 193.832 64.7147 193.502 65.0339L184.961 73.2817C184.631 73.6009 184.621 74.1276 184.941 74.4582L184.975 74.4941C185.294 74.8246 185.821 74.8338 186.152 74.5146L194.692 66.2668C195.023 65.9476 195.032 65.4209 194.713 65.0903Z" fill="#171717"/>
<path d="M210.587 83.455L210.556 83.4154C210.277 83.0506 209.755 82.9815 209.39 83.261L199.965 90.4823C199.601 90.7618 199.531 91.2841 199.811 91.6488L199.841 91.6884C200.121 92.0532 200.643 92.1223 201.008 91.8428L210.432 84.6215C210.797 84.342 210.866 83.8197 210.587 83.455Z" fill="#171717"/>
<path d="M224.179 103.49L224.205 103.533C224.441 103.927 224.313 104.438 223.918 104.674L213.731 110.774C213.337 111.01 212.826 110.881 212.59 110.487L212.565 110.444C212.329 110.05 212.457 109.539 212.851 109.303L223.038 103.204C223.432 102.968 223.943 103.096 224.179 103.49Z" fill="#E3E3E3"/>
<path d="M252.219 243.574L252.212 243.623C252.145 244.078 251.722 244.392 251.268 244.325L239.521 242.599C239.066 242.532 238.752 242.11 238.819 241.655L238.826 241.606C238.893 241.151 239.315 240.836 239.77 240.903L251.517 242.629C251.972 242.696 252.286 243.119 252.219 243.574Z" fill="#E3E3E3"/>
<path d="M235.507 125.027L235.487 124.982C235.297 124.563 234.804 124.377 234.385 124.567L223.57 129.466C223.152 129.656 222.966 130.149 223.156 130.567L223.176 130.613C223.366 131.031 223.859 131.217 224.278 131.027L235.093 126.128C235.511 125.939 235.697 125.446 235.507 125.027Z" stroke="#E3E3E3" mask="url(#path-1-outside-1_1_4)"/>
<path d="M244.215 147.664L244.2 147.616C244.059 147.179 243.591 146.938 243.153 147.079L231.85 150.713C231.412 150.853 231.172 151.322 231.312 151.759L231.328 151.807C231.468 152.244 231.937 152.485 232.374 152.344L238.026 150.528L243.678 148.711C244.115 148.57 244.356 148.101 244.215 147.664Z" stroke="#E3E3E3" mask="url(#path-1-outside-1_1_4)"/>
<path d="M250.364 171.159L250.354 171.11C250.264 170.659 249.826 170.367 249.375 170.456L237.731 172.779C237.281 172.869 236.988 173.307 237.078 173.758L237.088 173.807C237.178 174.257 237.616 174.55 238.067 174.46L249.71 172.137C250.161 172.047 250.454 171.609 250.364 171.159Z" stroke="#E3E3E3" mask="url(#path-1-outside-1_1_4)"/>
<path d="M253.722 195.18L253.718 195.131C253.68 194.673 253.278 194.332 252.82 194.37L240.987 195.349C240.53 195.387 240.189 195.789 240.227 196.247L240.231 196.297C240.269 196.755 240.671 197.095 241.129 197.057L252.961 196.078C253.419 196.04 253.76 195.638 253.722 195.18Z" stroke="#E3E3E3" mask="url(#path-1-outside-1_1_4)"/>
<path d="M254.387 219.47L254.389 219.42C254.403 218.961 254.043 218.577 253.583 218.562L241.716 218.187C241.257 218.173 240.873 218.533 240.858 218.993L240.857 219.043C240.842 219.502 241.203 219.886 241.662 219.9L253.529 220.275C253.988 220.29 254.372 219.929 254.387 219.47Z" stroke="#E3E3E3" mask="url(#path-1-outside-1_1_4)"/>
<path d="M-5.69405 5.64124L-5.74272 5.65239C-6.19063 5.75506 -6.47049 6.20139 -6.36782 6.64929L-3.71507 18.2222C-3.6124 18.6701 -3.16608 18.95 -2.71817 18.8473L-2.6695 18.8362C-2.2216 18.7335 -1.94173 18.2872 -2.0444 17.8393L-4.69716 6.26634C-4.79983 5.81844 -5.24615 5.53857 -5.69405 5.64124Z" stroke="#E3E3E3" mask="url(#path-1-outside-1_1_4)"/>
<path d="M18.2317 1.55047L18.182 1.55601C17.7254 1.60699 17.3965 2.01854 17.4475 2.47522L18.7648 14.275C18.8158 14.7317 19.2274 15.0606 19.6841 15.0096L19.7337 15.004C20.1903 14.953 20.5192 14.5415 20.4682 14.0848L19.1509 2.28504C19.0999 1.82836 18.6883 1.49948 18.2317 1.55047Z" stroke="#E3E3E3" mask="url(#path-1-outside-1_1_4)"/>
<path d="M42.4636 0.250225L42.4137 0.250069C41.9542 0.248628 41.5805 0.619971 41.5791 1.07949L41.5418 12.9525C41.5404 13.412 41.9117 13.7857 42.3712 13.7872L42.4212 13.7873C42.8807 13.7887 43.2544 13.4174 43.2558 12.9579L43.293 1.08486C43.2945 0.625346 42.9231 0.251666 42.4636 0.250225Z" stroke="#E3E3E3" mask="url(#path-1-outside-1_1_4)"/>
<path d="M66.6976 1.67006L66.648 1.66422C66.1916 1.61045 65.7781 1.93682 65.7243 2.39318L64.335 14.1847C64.2813 14.6411 64.6076 15.0546 65.064 15.1084L65.1136 15.1142C65.5699 15.168 65.9835 14.8416 66.0372 14.3853L67.4265 2.59374C67.4803 2.13738 67.1539 1.72383 66.6976 1.67006Z" stroke="#E3E3E3" mask="url(#path-1-outside-1_1_4)"/>
<path d="M90.5989 5.90045L90.5503 5.88899C90.103 5.78352 89.655 6.06058 89.5495 6.50783L86.8242 18.0639C86.7187 18.5112 86.9958 18.9592 87.443 19.0647L87.4916 19.0762C87.9389 19.1816 88.3869 18.9046 88.4924 18.4573L91.2177 6.90125C91.3232 6.454 91.0461 6.00593 90.5989 5.90045Z" stroke="#E3E3E3" mask="url(#path-1-outside-1_1_4)"/>
<path d="M113.869 12.775L113.823 12.7581C113.39 12.6023 112.913 12.8265 112.758 13.2589L108.734 24.4294C108.578 24.8617 108.803 25.3384 109.235 25.4941L109.282 25.511C109.714 25.6668 110.191 25.4425 110.347 25.0102L114.37 13.8397C114.526 13.4074 114.302 12.9307 113.869 12.775Z" stroke="#E3E3E3" mask="url(#path-1-outside-1_1_4)"/>
<path d="M136.204 22.3042L136.159 22.282C135.747 22.078 135.248 22.2463 135.044 22.6581L129.772 33.2967C129.568 33.7084 129.737 34.2076 130.148 34.4116L130.193 34.4338C130.605 34.6378 131.104 34.4694 131.308 34.0577L136.58 23.4191C136.784 23.0074 136.615 22.5082 136.204 22.3042Z" stroke="#E3E3E3" mask="url(#path-1-outside-1_1_4)"/>
<path d="M157.285 34.3139L157.243 34.2868C156.857 34.0371 156.342 34.1475 156.092 34.5332L149.642 44.501C149.392 44.8868 149.502 45.4019 149.888 45.6516L149.93 45.6787C150.316 45.9284 150.831 45.8181 151.081 45.4323L157.531 35.4645C157.781 35.0787 157.671 34.5636 157.285 34.3139Z" stroke="#E3E3E3" mask="url(#path-1-outside-1_1_4)"/>
<path d="M176.898 48.6121L176.859 48.5804C176.504 48.2884 175.98 48.3394 175.688 48.6942L168.144 57.8624C167.852 58.2172 167.903 58.7416 168.258 59.0335L168.296 59.0653C168.651 59.3572 169.175 59.3063 169.467 58.9515L177.011 49.7833C177.303 49.4284 177.252 48.9041 176.898 48.6121Z" stroke="#E3E3E3" mask="url(#path-1-outside-1_1_4)"/>
<path d="M194.713 65.0903L194.678 65.0544C194.359 64.7239 193.832 64.7147 193.502 65.0339L184.961 73.2817C184.631 73.6009 184.621 74.1276 184.941 74.4582L184.975 74.4941C185.294 74.8246 185.821 74.8338 186.152 74.5146L194.692 66.2668C195.023 65.9476 195.032 65.4209 194.713 65.0903Z" stroke="#E3E3E3" mask="url(#path-1-outside-1_1_4)"/>
<path d="M210.587 83.455L210.556 83.4154C210.277 83.0506 209.755 82.9815 209.39 83.261L199.965 90.4823C199.601 90.7618 199.531 91.2841 199.811 91.6488L199.841 91.6884C200.121 92.0532 200.643 92.1223 201.008 91.8428L210.432 84.6215C210.797 84.342 210.866 83.8197 210.587 83.455Z" stroke="#E3E3E3" mask="url(#path-1-outside-1_1_4)"/>
<path d="M-5.69405 5.64124L-5.74272 5.65239C-6.19063 5.75506 -6.47049 6.20139 -6.36782 6.64929L-3.71507 18.2222C-3.6124 18.6701 -3.16608 18.95 -2.71817 18.8473L-2.6695 18.8362C-2.2216 18.7335 -1.94173 18.2872 -2.0444 17.8393L-4.69716 6.26634C-4.79983 5.81844 -5.24615 5.53857 -5.69405 5.64124Z" stroke="#E3E3E3" mask="url(#path-1-outside-1_1_4)"/>
<path d="M18.2317 1.55047L18.182 1.55601C17.7254 1.60699 17.3965 2.01854 17.4475 2.47522L18.7648 14.275C18.8158 14.7317 19.2274 15.0606 19.6841 15.0096L19.7337 15.004C20.1903 14.953 20.5192 14.5415 20.4682 14.0848L19.1509 2.28504C19.0999 1.82836 18.6883 1.49948 18.2317 1.55047Z" stroke="#E3E3E3" mask="url(#path-1-outside-1_1_4)"/>
<path d="M42.4636 0.250225L42.4137 0.250069C41.9542 0.248628 41.5805 0.619971 41.5791 1.07949L41.5418 12.9525C41.5404 13.412 41.9117 13.7857 42.3712 13.7872L42.4212 13.7873C42.8807 13.7887 43.2544 13.4174 43.2558 12.9579L43.293 1.08486C43.2945 0.625346 42.9231 0.251666 42.4636 0.250225Z" stroke="#E3E3E3" mask="url(#path-1-outside-1_1_4)"/>
<path d="M66.6976 1.67006L66.648 1.66422C66.1916 1.61045 65.7781 1.93682 65.7243 2.39318L64.335 14.1847C64.2813 14.6411 64.6076 15.0546 65.064 15.1084L65.1136 15.1142C65.5699 15.168 65.9835 14.8416 66.0372 14.3853L67.4265 2.59374C67.4803 2.13738 67.1539 1.72383 66.6976 1.67006Z" stroke="#E3E3E3" mask="url(#path-1-outside-1_1_4)"/>
<path d="M90.5989 5.90045L90.5503 5.88899C90.103 5.78352 89.655 6.06058 89.5495 6.50783L86.8242 18.0639C86.7187 18.5112 86.9958 18.9592 87.443 19.0647L87.4916 19.0762C87.9389 19.1816 88.3869 18.9046 88.4924 18.4573L91.2177 6.90125C91.3232 6.454 91.0461 6.00593 90.5989 5.90045Z" stroke="#E3E3E3" mask="url(#path-1-outside-1_1_4)"/>
<path d="M113.869 12.775L113.823 12.7581C113.39 12.6023 112.913 12.8265 112.758 13.2589L108.734 24.4294C108.578 24.8617 108.803 25.3384 109.235 25.4941L109.282 25.511C109.714 25.6668 110.191 25.4425 110.347 25.0102L114.37 13.8397C114.526 13.4074 114.302 12.9307 113.869 12.775Z" stroke="#E3E3E3" mask="url(#path-1-outside-1_1_4)"/>
<path d="M136.204 22.3042L136.159 22.282C135.747 22.078 135.248 22.2463 135.044 22.6581L129.772 33.2967C129.568 33.7084 129.737 34.2076 130.148 34.4116L130.193 34.4338C130.605 34.6378 131.104 34.4694 131.308 34.0577L136.58 23.4191C136.784 23.0074 136.615 22.5082 136.204 22.3042Z" stroke="#E3E3E3" mask="url(#path-1-outside-1_1_4)"/>
<path d="M157.285 34.3139L157.243 34.2868C156.857 34.0371 156.342 34.1475 156.092 34.5332L149.642 44.501C149.392 44.8868 149.502 45.4019 149.888 45.6516L149.93 45.6787C150.316 45.9284 150.831 45.8181 151.081 45.4323L157.531 35.4645C157.781 35.0787 157.671 34.5636 157.285 34.3139Z" stroke="#E3E3E3" mask="url(#path-1-outside-1_1_4)"/>
<path d="M176.898 48.6121L176.859 48.5804C176.504 48.2884 175.98 48.3394 175.688 48.6942L168.144 57.8624C167.852 58.2172 167.903 58.7416 168.258 59.0335L168.296 59.0653C168.651 59.3572 169.175 59.3063 169.467 58.9515L177.011 49.7833C177.303 49.4284 177.252 48.9041 176.898 48.6121Z" stroke="#E3E3E3" mask="url(#path-1-outside-1_1_4)"/>
<path d="M194.713 65.0903L194.678 65.0544C194.359 64.7239 193.832 64.7147 193.502 65.0339L184.961 73.2817C184.631 73.6009 184.621 74.1276 184.941 74.4582L184.975 74.4941C185.294 74.8246 185.821 74.8338 186.152 74.5146L194.692 66.2668C195.023 65.9476 195.032 65.4209 194.713 65.0903Z" stroke="#E3E3E3" mask="url(#path-1-outside-1_1_4)"/>
<path d="M210.587 83.455L210.556 83.4154C210.277 83.0506 209.755 82.9815 209.39 83.261L199.965 90.4823C199.601 90.7618 199.531 91.2841 199.811 91.6488L199.841 91.6884C200.121 92.0532 200.643 92.1223 201.008 91.8428L210.432 84.6215C210.797 84.342 210.866 83.8197 210.587 83.455Z" stroke="#E3E3E3" mask="url(#path-1-outside-1_1_4)"/>
<path d="M224.179 103.49L224.205 103.533C224.441 103.927 224.313 104.438 223.918 104.674L213.731 110.774C213.337 111.01 212.826 110.881 212.59 110.487L212.565 110.444C212.329 110.05 212.457 109.539 212.851 109.303L223.038 103.204C223.432 102.968 223.943 103.096 224.179 103.49Z" stroke="#E3E3E3" mask="url(#path-1-outside-1_1_4)"/>
<path d="M252.219 243.574L252.212 243.623C252.145 244.078 251.722 244.392 251.268 244.325L239.521 242.599C239.066 242.532 238.752 242.11 238.819 241.655L238.826 241.606C238.893 241.151 239.315 240.836 239.77 240.903L251.517 242.629C251.972 242.696 252.286 243.119 252.219 243.574Z" stroke="#E3E3E3" mask="url(#path-1-outside-1_1_4)"/>
<rect x="209.909" y="82.7397" width="2" height="268.409" rx="1" transform="rotate(52.6206 209.909 82.7397)" fill="#E75820"/>
<circle cx="211" cy="83.0483" r="6" fill="#E75820"/>
</svg>
